<svg width="24" height="26" viewBox="0 0 24 26" fill="none" xmlns="http://www.w3.org/2000/svg">
<path d="M23.5033 12.4715L12.5988 0.277714C12.5203 0.189679 12.427 0.119836 12.3244 0.0721826C12.2217 0.0245289 12.1116 0 12.0005 0C11.8893 0 11.7793 0.0245289 11.6766 0.0721826C11.574 0.119836 11.4807 0.189679 11.4022 0.277714L0.497704 12.4715C0.180021 12.827 0 13.3099 0 13.8136C0 14.8594 0.759793 15.7096 1.69431 15.7096H2.84327V24.4106C2.84327 24.935 3.22184 25.3586 3.69042 25.3586H10.3062V18.7225H13.2712V25.3586H20.3106C20.7792 25.3586 21.1577 24.935 21.1577 24.4106V15.7096H22.3067C22.7567 15.7096 23.1883 15.5111 23.5059 15.1526C24.1651 14.412 24.1651 13.2122 23.5033 12.4715Z" fill="white"/>
</svg>
