<svg width="26" height="24" viewBox="0 0 26 24" fill="none" xmlns="http://www.w3.org/2000/svg">
<path d="M0 4.7193V18.9135C0 20.2204 0.531819 21.3821 1.38273 22.2896C2.23364 23.1609 3.33273 23.6328 4.6091 23.6328H11.5582V20.6923H4.6091C3.65182 20.6923 2.90728 19.8937 2.90728 18.9135V4.7193C2.90728 3.73914 3.65182 2.97679 4.6091 2.97679H11.5582V0H4.6091C3.33273 0 2.23364 0.508233 1.38273 1.37949C0.531819 2.28705 0 3.41242 0 4.7193ZM7.62274 9.00298V14.6661C7.62274 15.3196 8.19001 15.8641 8.82819 15.8641H15.2455V20.3293C15.2455 20.7286 15.4582 21.0553 15.8128 21.2369C15.9546 21.2732 16.0964 21.2732 16.1673 21.2732C16.4155 21.2732 16.6282 21.2006 16.8055 21.019L25.1373 12.488C25.5273 12.1613 25.4919 11.5078 25.1373 11.1448L16.8055 2.65007C16.3091 2.10553 15.2455 2.43226 15.2455 3.30351V7.805H8.82819C8.19001 7.805 7.62274 8.34953 7.62274 9.00298Z" fill="black"/>
</svg>
