<svg width="26" height="27" viewBox="0 0 26 27" fill="none" xmlns="http://www.w3.org/2000/svg">
<path d="M12.7132 9.87291C11.8165 9.87291 10.9767 10.2211 10.3409 10.8574C9.70805 11.4937 9.35714 12.3341 9.35714 13.2316C9.35714 14.129 9.70805 14.9694 10.3409 15.6058C10.9767 16.2391 11.8165 16.5903 12.7132 16.5903C13.61 16.5903 14.4497 16.2391 15.0856 15.6058C15.7184 14.9694 16.0693 14.129 16.0693 13.2316C16.0693 12.3341 15.7184 11.4937 15.0856 10.8574C14.775 10.5442 14.4054 10.2959 13.9981 10.1269C13.5908 9.9579 13.1541 9.87156 12.7132 9.87291ZM25.0788 16.9414L23.1173 15.2636C23.2103 14.6933 23.2583 14.111 23.2583 13.5317C23.2583 12.9524 23.2103 12.3672 23.1173 11.7999L25.0788 10.122C25.227 9.99509 25.333 9.82602 25.3828 9.63729C25.4327 9.44857 25.4239 9.24913 25.3577 9.06551L25.3307 8.98747C24.7909 7.4768 23.9821 6.0765 22.9434 4.85442L22.8894 4.79139C22.7633 4.64297 22.5952 4.53628 22.4072 4.48538C22.2193 4.43448 22.0204 4.44176 21.8367 4.50625L19.4014 5.37368C18.5016 4.63531 17.4999 4.05302 16.4142 3.64782L15.9433 1.09956C15.9078 0.907589 15.8147 0.730982 15.6765 0.5932C15.5383 0.455418 15.3615 0.362982 15.1695 0.328175L15.0886 0.313168C13.529 0.0310275 11.8854 0.0310275 10.3259 0.313168L10.2449 0.328175C10.0529 0.362982 9.87611 0.455418 9.7379 0.5932C9.59969 0.730982 9.50664 0.907589 9.47111 1.09956L8.99724 3.65983C7.92183 4.06826 6.92 4.64914 6.03106 5.37968L3.57774 4.50625C3.39409 4.44124 3.19502 4.43371 3.00699 4.48464C2.81895 4.53557 2.65085 4.64256 2.52503 4.79139L2.47105 4.85442C1.43421 6.0778 0.625574 7.47775 0.0837101 8.98747L0.0567175 9.06551C-0.0782451 9.4407 0.0327243 9.86091 0.33564 10.122L2.32109 11.8179C2.22812 12.3822 2.18313 12.9584 2.18313 13.5287C2.18313 14.105 2.22812 14.6813 2.32109 15.2396L0.341639 16.9354C0.193467 17.0624 0.0874183 17.2314 0.0375947 17.4202C-0.0122289 17.6089 -0.00346692 17.8083 0.0627158 17.9919L0.0897084 18.07C0.632558 19.5797 1.43334 20.9754 2.47705 22.203L2.53103 22.2661C2.65716 22.4145 2.82526 22.5212 3.01319 22.5721C3.20111 22.623 3.40003 22.6157 3.58374 22.5512L6.03706 21.6778C6.93081 22.4131 7.92654 22.9954 9.00324 23.3976L9.47711 25.9579C9.51264 26.1499 9.60569 26.3265 9.7439 26.4643C9.88211 26.602 10.0589 26.6945 10.2509 26.7293L10.3319 26.7443C11.9068 27.0279 13.5196 27.0279 15.0946 26.7443L15.1755 26.7293C15.3675 26.6945 15.5443 26.602 15.6825 26.4643C15.8207 26.3265 15.9138 26.1499 15.9493 25.9579L16.4202 23.4096C17.5059 23.0014 18.5076 22.4221 19.4074 21.6838L21.8427 22.5512C22.0263 22.6162 22.2254 22.6238 22.4134 22.5728C22.6015 22.5219 22.7696 22.4149 22.8954 22.2661L22.9494 22.203C23.9931 20.9694 24.7939 19.5797 25.3367 18.07L25.3637 17.9919C25.4927 17.6198 25.3817 17.2026 25.0788 16.9414ZM12.7132 18.5082C9.80102 18.5082 7.44067 16.146 7.44067 13.2316C7.44067 10.3171 9.80102 7.95496 12.7132 7.95496C15.6254 7.95496 17.9858 10.3171 17.9858 13.2316C17.9858 16.146 15.6254 18.5082 12.7132 18.5082Z" fill="white"/>
</svg>
